<?xml version="1.0" encoding="utf-8"?>
<!-- Generator: Adobe Illustrator 21.0.0, SVG Export Plug-In . SVG Version: 6.00 Build 0)  -->
<svg version="1.1" id="dafc5a10-31ce-4f4f-9768-af24e79fd7c2"
	 xmlns="http://www.w3.org/2000/svg" xmlns:xlink="http://www.w3.org/1999/xlink" x="0px" y="0px" viewBox="0 0 1126.6 785.9"
	 style="enable-background:new 0 0 1126.6 785.9;" xml:space="preserve">
<style type="text/css">
	.st0{opacity:0.1;fill:#3182CE;enable-background:new    ;}
	.st1{fill:none;stroke:#535461;stroke-width:2;stroke-miterlimit:10;}
	.st2{fill:#3182CE;}
	.st3{opacity:0.5;fill:#FFFFFF;enable-background:new    ;}
	.st4{fill:#474059;}
	.st5{opacity:0.1;enable-background:new    ;}
	.st6{fill:#C0BCCF;}
	.st7{fill:#FFFFFF;}
	.st8{fill:#E8EAF1;}
	.st9{fill:url(#SVGID_1_);}
	.st10{fill:#B96B6B;}
	.st11{fill:#FFB9B9;}
	.st12{fill:#FEC5D9;}
	.st13{fill:#747B9C;}
	.st14{opacity:0.1;fill:#FFFFFF;enable-background:new    ;}
	.st15{opacity:0.2;enable-background:new    ;}
	.st16{fill:none;stroke:#3182CE;stroke-miterlimit:10;}
	.st17{fill:url(#SVGID_2_);}
	.st18{fill:#D6E6F9;}
	.st19{fill:#5F546F;}
	.st20{fill:#FFCED8;}
	.st21{fill:#BC8387;}
	.st22{fill:#AE767A;}
	.st23{fill:#CB919B;}
	.st24{fill:#5A5773;}
</style>
<title>social networking</title>
<g id="Fleka">
	<path class="st0" d="M1060,458.2c-39.1,53.7-26.2,130.4-3.6,191.5c7.6,20.5,16.2,42.1,12.3,64.3c-4.8,27.2-27.4,47.6-50.8,58.7
		c-42.8,20.2-93.3,17-131.5-8.5c-33-22-56.2-58.6-89.9-79.5c-56.3-35-129.4-19.4-192,7.4c-44.3,18.9-92.9,43.3-136.1,25.8
		c-30.4-12.3-50.9-43.6-61.6-77.1c-5.2-16.2-8.8-33.7-19.2-46.3c-6.2-7.5-14.3-12.8-22.7-17.1c-76.4-40-174.6-15-248.7-59.6
		c-50-30.1-81.1-88.6-94.1-150.1s-9.7-126.4-4.6-190.2C21.2,132.1,27,83.6,54.2,48C83.1,10.3,131.4-4.7,174.6,1.2
		s81.9,29.9,115.8,58.5c42.4,35.8,81.4,80.6,134.1,94.2c35.9,9.2,74.1,2.7,111.4-0.2c62.4-4.8,124.6,0.7,186.4,7
		c59.2,6,118.7,12.7,174.8,32.4c39.7,13.9,71.1,40.2,108.4,58.2c24.3,11.7,51.1,14.4,74,29.6c28.3,18.6,53.8,51.7,45.5,91.3
		C1117.2,410,1080.8,429.7,1060,458.2z"/>
</g>
<g id="cvece">
	<path class="st1" d="M151.6,575.2c0,0-3.3-97.8-56.2-153c-22.2-23.2-36.8-52.6-40.6-84.5c-1.8-15.1-2.2-30.4-1.2-45.6"/>
	<path class="st2" d="M20.4,257.2c3.6,10.9,33.9,36,33.9,36s9.3-38.2,5.7-49.1c-3.6-10.9-15.4-16.8-26.3-13.2
		C22.7,234.5,16.8,246.3,20.4,257.2L20.4,257.2z"/>
	<path class="st2" d="M7.8,328.5c9,7.2,48,11.8,48,11.8s-13-37.1-22-44.3c-9-7.2-22.1-5.8-29.3,3.2S-1.2,321.3,7.8,328.5L7.8,328.5
		L7.8,328.5z"/>
	<path class="st2" d="M43.5,431.4c11.4,1.7,47.4-14,47.4-14s-30-25.5-41.3-27.2c-11.4-1.7-22,6.2-23.6,17.6
		C24.3,419.1,32.1,429.7,43.5,431.4L43.5,431.4L43.5,431.4z"/>
	<path class="st2" d="M88,503.1c10.9,3.6,49.1-5.8,49.1-5.8s-25.2-30.2-36.1-33.8c-10.9-3.6-22.7,2.4-26.3,13.3
		C71.1,487.7,77,499.5,88,503.1L88,503.1z"/>
	<path class="st2" d="M98,328.7c-5.3,10.2-39.2,30.2-39.2,30.2s-3.1-39.2,2.2-49.4c5.3-10.2,17.9-14.2,28.1-8.9
		C99.4,305.9,103.3,318.5,98,328.7z"/>
	<path class="st2" d="M149,413.2c-8.1,8.1-46.4,17.1-46.4,17.1s8.8-38.3,16.9-46.5c8.1-8.1,21.3-8.2,29.4-0.1
		C157.1,391.9,157.1,405.1,149,413.2L149,413.2z"/>
	<path class="st2" d="M187.3,502.2c-6.6,9.4-42.9,24.7-42.9,24.7s2.2-39.3,8.8-48.7c6.3-9.6,19.2-12.3,28.8-6
		c9.6,6.3,12.3,19.2,6,28.8C187.8,501.5,187.6,501.9,187.3,502.2L187.3,502.2z"/>
	<path class="st1" d="M140,534.8c0,0,30-43.6,24.7-84.7c-2.3-17.2,1-34.7,9.5-49.9c4.1-7.2,8.8-14,14.1-20.3"/>
	<path class="st2" d="M185.2,354.1c-1.9,5.9,3.2,26.6,3.2,26.6s16.3-13.7,18.3-19.6c1.9-5.9-1.3-12.3-7.2-14.2
		S187.1,348.2,185.2,354.1L185.2,354.1z"/>
	<path class="st2" d="M156.7,381.1c1.6,6,17.1,20.6,17.1,20.6s6.3-20.3,4.7-26.4c-1.6-6-7.8-9.6-13.8-8
		C158.7,368.9,155.1,375.1,156.7,381.1L156.7,381.1L156.7,381.1z"/>
	<path class="st2" d="M139.2,437.3c4.4,4.4,25.2,9.1,25.2,9.1s-4.8-20.7-9.3-25.1c-4.4-4.4-11.6-4.4-15.9,0.1
		C134.7,425.8,134.8,433,139.2,437.3L139.2,437.3z"/>
	<path class="st2" d="M135.5,483c3.6,5.1,23.3,13.3,23.3,13.3s-1.3-21.3-4.9-26.3c-3.6-5.1-10.6-6.3-15.7-2.7
		C133.1,470.8,131.9,477.9,135.5,483L135.5,483z"/>
	<path class="st2" d="M196,410.2c-5.6,2.7-26.8,0.5-26.8,0.5s11.3-18.1,16.9-20.8c5.6-2.7,12.3-0.4,15.1,5.2
		C203.9,400.7,201.6,407.5,196,410.2L196,410.2z"/>
	<path class="st2" d="M191,463.4c-6.2,0.9-25.7-7.5-25.7-7.5s16.1-13.9,22.3-14.8c6.2-0.9,11.9,3.3,12.8,9.4
		C201.4,456.8,197.2,462.5,191,463.4L191,463.4L191,463.4z"/>
	<path class="st2" d="M179,514.5c-5.9,2-26.6-3-26.6-3s13.6-16.4,19.5-18.4c5.9-2,12.3,1.2,14.3,7.1
		C188.1,506.2,184.9,512.5,179,514.5L179,514.5z"/>
	<path class="st3" d="M185.2,354.1c-1.9,5.9,3.2,26.6,3.2,26.6s16.3-13.7,18.3-19.6c1.9-5.9-1.3-12.3-7.2-14.2
		S187.1,348.2,185.2,354.1L185.2,354.1z"/>
	<path class="st3" d="M156.7,381.1c1.6,6,17.1,20.6,17.1,20.6s6.3-20.3,4.7-26.4c-1.6-6-7.8-9.6-13.8-8
		C158.7,368.9,155.1,375.1,156.7,381.1L156.7,381.1L156.7,381.1z"/>
	<path class="st3" d="M139.2,437.3c4.4,4.4,25.2,9.1,25.2,9.1s-4.8-20.7-9.3-25.1c-4.4-4.4-11.6-4.4-15.9,0.1
		C134.7,425.8,134.8,433,139.2,437.3L139.2,437.3z"/>
	<path class="st3" d="M135.5,483c3.6,5.1,23.3,13.3,23.3,13.3s-1.3-21.3-4.9-26.3c-3.6-5.1-10.6-6.3-15.7-2.7
		C133.1,470.8,131.9,477.9,135.5,483L135.5,483z"/>
	<path class="st3" d="M196,410.2c-5.6,2.7-26.8,0.5-26.8,0.5s11.3-18.1,16.9-20.8c5.6-2.7,12.3-0.4,15.1,5.2
		C203.9,400.7,201.6,407.5,196,410.2L196,410.2z"/>
	<path class="st3" d="M191,463.4c-6.2,0.9-25.7-7.5-25.7-7.5s16.1-13.9,22.3-14.8c6.2-0.9,11.9,3.3,12.8,9.4
		C201.4,456.8,197.2,462.5,191,463.4L191,463.4L191,463.4z"/>
	<path class="st3" d="M179,514.5c-5.9,2-26.6-3-26.6-3s13.6-16.4,19.5-18.4c5.9-2,12.3,1.2,14.3,7.1
		C188.1,506.2,184.9,512.5,179,514.5L179,514.5z"/>
	<polygon class="st4" points="195.5,653.1 110.2,653.1 88.8,523 216.8,523 	"/>
	<polygon class="st5" points="200.5,523 180.6,644.6 108.8,644.6 110.2,653.1 195.5,653.1 216.8,523 	"/>
</g>
<g id="sto_x5F_sa_x5F_sadrzajem">
	<g id="sto">
		<rect x="232.8" y="359" class="st6" width="148" height="51"/>
		<rect x="836.8" y="334" class="st6" width="32" height="278"/>
		<rect x="232.8" y="359" class="st5" width="148" height="3"/>
		<rect x="836.8" y="334" class="st5" width="32" height="28"/>
		<rect x="232.8" y="408" class="st6" width="148" height="51"/>
		<circle class="st2" cx="306.8" cy="433" r="9"/>
		<circle class="st2" cx="306.8" cy="384" r="9"/>
		<rect x="232.8" y="459" class="st6" width="148" height="51"/>
		<circle class="st2" cx="306.8" cy="483" r="9"/>
		<rect x="232.8" y="510" class="st6" width="148" height="51"/>
		<circle class="st2" cx="306.8" cy="534" r="9"/>
		<rect x="232.8" y="561" class="st6" width="148" height="51"/>
		<circle class="st2" cx="306.8" cy="585" r="9"/>
		<rect x="232.8" y="456" class="st5" width="148" height="4"/>
		<rect x="232.8" y="406" class="st5" width="148" height="4"/>
		<rect x="232.8" y="507" class="st5" width="148" height="4"/>
		<rect x="232.8" y="558" class="st5" width="148" height="4"/>
		<rect x="229.8" y="330" class="st6" width="643" height="30"/>
	</g>
	<g id="ekran">
		<path class="st4" d="M390.3,158.9h186.2c5.3,0,9.6,4.3,9.6,9.6v118.8c0,5.3-4.3,9.6-9.6,9.6H390.3c-5.3,0-9.6-4.3-9.6-9.6V168.5
			C380.6,163.2,385,158.9,390.3,158.9z"/>
		<rect x="385" y="175" class="st7" width="196.4" height="112.8"/>
		<ellipse class="st7" cx="483.2" cy="169.2" rx="1.7" ry="1.9"/>
		<rect x="464.8" y="292" class="st4" width="36" height="38"/>
		<path class="st4" d="M461.8,327h44c3.3,0,6,2.7,6,6l0,0l0,0h-56l0,0l0,0C455.8,329.6,458.5,327,461.8,327z"/>
	</g>
	<g id="sadrzaj_x5F_ekrana">
		<rect x="389.8" y="182.8" class="st8" width="92" height="97.2"/>
		<rect x="391.8" y="184.9" class="st7" width="88" height="93"/>
		
			<linearGradient id="SVGID_1_" gradientUnits="userSpaceOnUse" x1="470.06" y1="451.9588" x2="470.06" y2="543.9493" gradientTransform="matrix(1 0 0 -1 -36.68 730.95)">
			<stop  offset="0" style="stop-color:#808080;stop-opacity:0.25"/>
			<stop  offset="0.54" style="stop-color:#808080;stop-opacity:0.12"/>
			<stop  offset="1" style="stop-color:#808080;stop-opacity:0.1"/>
		</linearGradient>
		<path class="st9" d="M470.3,252.7c1.2-9.7-1.2-10.4-1.2-10.4l-3.5-1.7c0.1-0.6,0.1-1.1,0.1-1.7c0-0.5,0-1,0-1.4
			c-0.4-3.8-2.6-7.2-4.3-10.7c-1.5-3.2-2.4-6.7-2.8-10.2c-0.4-4.4,0-8.9-1.5-13c-1.4-3.3-3.5-6.2-6.2-8.6c-2.9-2.9-6.3-5.2-10-6.8
			c-3.8-1.6-8-1.7-11.9-0.3c-3.4,1.3-6,4-8.6,6.6c-1.9,1.8-3.5,3.7-4.9,5.9c-1.4,2.8-2.4,5.8-2.7,8.9c-0.8,4.9-1.4,9.9-1.7,14.9
			c-0.3,4.2-0.7,8.9-4,11.5c-1.6,1.3-3.9,2-4.7,3.8c-0.2,0.6-0.3,1.2-0.2,1.8c0,0.5,0,1,0.1,1.5c0,0.3,0.1,0.6,0.2,0.9
			c-1,2.5-1.8,5.1-2.4,7.8c-2.3,9-3.9,18.2-4.9,27.4h59.3c0.6,0.1,1.1,0.1,1.7,0h15.4L470.3,252.7z"/>
		<rect x="419" y="212.3" class="st10" width="34" height="25.7"/>
		<rect x="419" y="212.3" class="st5" width="34" height="25.7"/>
		<path class="st11" d="M454.3,239.2l-13.1,18.5l-13.8-1.2c0,0-17.9,1.2-6-12.6c5.7-6.6,7.6-12.1,8-16c0.3-2.3,0-4.6-0.9-6.7
			l14.9-1.8c-0.7,2-0.8,4.2-0.2,6.2C445.1,233.5,454.3,239.2,454.3,239.2z"/>
		<path class="st5" d="M443.3,225.7c-4,3-9.1,3.8-13.8,2.2c0.3-2.3,0-4.6-0.9-6.7l14.9-1.8C442.8,221.5,442.7,223.7,443.3,225.7z"/>
		<circle class="st11" cx="434.2" cy="213.2" r="14.9"/>
		<path class="st5" d="M435.1,252.9c0,0,5.4-6.6,5.4-12c1.5-2.9,4.1-5,7.2-6c5.4-1.8,4.8,0,4.8,0l3.6,14.3l-1.2,25.7l0.6,3h-44.2
			l3-12l-0.6-10.1l2.4-15.5l7.2-4.2l5.4,7.2L435.1,252.9z"/>
		<path class="st12" d="M435.1,253.6c0,0,5.4-6.6,5.4-12c1.5-2.9,4.1-5,7.2-6c5.4-1.8,4.8,0,4.8,0l3.6,14.3l-1.2,25.7l0.6,3h-44.2
			l3-12l-0.6-10.2L416,241l7.2-4.2l5.4,7.2L435.1,253.6z"/>
		<path class="st5" d="M426.8,235l-18.5,3c0,0-3-0.6-6.6,13.7c-2.2,8.8-3.8,17.8-4.8,26.9H420c0,0,1.4-23.9,5-25.7l5-7.7
			c0,0-8-0.6-6.8-4.8S426.8,235,426.8,235z"/>
		<path class="st13" d="M426.2,235l-18.5,3c0,0-3-0.6-6.6,13.7c-2.2,8.8-3.8,17.8-4.8,26.9h23.1c0,0,1.4-23.9,5-25.7l5-7.7
			c0,0-8-0.6-6.8-4.8S426.2,235,426.2,235z"/>
		<path class="st5" d="M447.7,233.2l19.7,9.6c0,0,2.4,0.6,1.2,10.2l1.2,25.7h-21.2c1.6-8.1,1.9-16.3,0.9-24.5
			C448.4,247.2,447.8,240.3,447.7,233.2z"/>
		<path class="st13" d="M448.3,233.2l19.7,9.6c0,0,2.4,0.6,1.2,10.2l1.2,25.7h-21.2c1.6-8.1,1.9-16.3,0.9-24.5
			C449,247.2,448.5,240.3,448.3,233.2z"/>
		<path class="st5" d="M429.3,206.7c-0.3,2.4-1.9,4.4-3.3,6.4s-2.6,4.5-1.8,6.8c0.3,0.9,0.9,1.7,1.1,2.6c0.4,1.6-0.5,3.3-0.3,4.9
			c0.2,2.2,2.1,3.9,3.1,5.9c2.2,4.2,0.5,9.4-1.9,13.5s-5.5,8-6.3,12.6c-0.7,4.3,0.7,8.7,2.2,12.8c0.4,0.8,0.5,1.7,0.3,2.6
			c-0.5,1.4-2.2,1.8-3.6,1.9c-1.6,0.1-3.2,0.1-4.8,0c-0.6,0-1.2-0.1-1.8-0.4c-1.1-0.6-1.4-2-1.8-3.2s-1.3-2.5-2.6-2.4
			c-0.8,0.1-1.5,0.8-2.3,0.9c-0.8,0.1-1.5-0.2-2-0.8c-1.5-1.6-1.1-4.2-0.1-6.2s2.5-3.7,3.1-5.8c1.6-5.2-2.4-10.4-3.3-15.7
			c-0.2-0.9-0.1-1.8,0.1-2.6c0.7-1.9,2.9-2.5,4.5-3.8c3.2-2.5,3.6-7.2,3.9-11.2c0.3-4.9,0.8-9.8,1.6-14.6c0.4-3,1.3-6,2.6-8.8
			c1.3-2.1,2.9-4.1,4.7-5.8c2.5-2.6,5-5.2,8.3-6.5c3.8-1.3,7.9-1.2,11.5,0.3c3.6,1.6,6.9,3.9,9.7,6.7c2.6,2.3,4.7,5.2,6,8.4
			c1.5,4,1,8.5,1.5,12.8c0.3,3.5,1.3,6.8,2.7,10c1.6,3.4,3.8,6.7,4.1,10.5c0.3,3-0.7,6-1.2,9c-0.9,5.2-0.4,10.5,0.2,15.7
			c0.1,1.3,0.3,2.5,0.8,3.7c0.9,1.7,2.1,3.1,3.6,4.3c0.3,0.2,0.6,0.6,0.6,1c0,0.3-0.2,0.7-0.5,0.9c-1.8,1.6-4.9,0.4-6.9,1.9
			c-0.5,0.5-1,1-1.5,1.6c-2.5,2.7-6.8,2.9-9.5,0.4c-1-0.9-1.7-2.2-2-3.5c-0.5-2.3,0.3-4.7,0.5-7.1c0.9-7.5-2.9-14.7-6-21.6
			c-1.4-3.2-2.8-6.7-2.2-10.2c0.4-2.8,2-5.3,3.1-7.9c2.3-5.2,3-11.3,1-16.6c-1.5-4.1-4.5-7.4-8.5-9.2c-1.4-0.6-3.4-1.5-4.9-0.7
			C428.8,201.6,429.5,204.5,429.3,206.7z"/>
		<path class="st10" d="M429.3,206.1c-0.3,2.4-1.9,4.4-3.3,6.4s-2.6,4.5-1.8,6.8c0.3,0.9,0.9,1.7,1.1,2.6c0.4,1.6-0.5,3.3-0.3,4.9
			c0.2,2.2,2.1,3.9,3.1,5.9c2.2,4.2,0.5,9.4-1.9,13.5s-5.5,8-6.3,12.6c-0.7,4.3,0.7,8.7,2.2,12.8c0.4,0.8,0.5,1.7,0.3,2.6
			c-0.5,1.4-2.2,1.8-3.6,1.9c-1.6,0.1-3.2,0.1-4.8,0c-0.6,0-1.2-0.1-1.8-0.4c-1.1-0.6-1.4-2-1.8-3.2s-1.3-2.5-2.6-2.4
			c-0.8,0.1-1.5,0.8-2.3,0.9c-0.8,0.1-1.5-0.2-2-0.8c-1.5-1.6-1.1-4.2-0.1-6.2s2.5-3.7,3.1-5.8c1.6-5.2-2.4-10.4-3.3-15.7
			c-0.2-0.9-0.1-1.8,0.1-2.6c0.7-1.9,2.9-2.5,4.5-3.8c3.2-2.5,3.6-7.2,3.9-11.2c0.3-4.9,0.8-9.8,1.6-14.6c0.4-3,1.3-6,2.6-8.8
			c1.3-2.1,2.9-4.1,4.7-5.8c2.5-2.6,5-5.2,8.3-6.5c3.8-1.3,7.9-1.2,11.5,0.3c3.6,1.6,6.9,3.8,9.7,6.6c2.6,2.3,4.7,5.2,6,8.4
			c1.5,4,1,8.5,1.5,12.8c0.3,3.5,1.3,6.8,2.7,10c1.6,3.4,3.8,6.7,4.1,10.5c0.3,3-0.7,6-1.2,9c-0.9,5.2-0.4,10.5,0.2,15.7
			c0.1,1.3,0.3,2.5,0.8,3.7c0.9,1.7,2.1,3.1,3.6,4.3c0.3,0.2,0.6,0.6,0.6,1c0,0.3-0.2,0.7-0.5,0.9c-1.8,1.6-4.9,0.4-6.9,1.9
			c-0.5,0.5-1,1-1.5,1.6c-2.5,2.7-6.8,2.9-9.5,0.4c-1-0.9-1.7-2.2-2-3.5c-0.5-2.3,0.3-4.7,0.5-7.1c0.9-7.5-2.9-14.7-6-21.6
			c-1.4-3.2-2.8-6.7-2.2-10.2c0.4-2.8,2-5.3,3.1-7.9c2.3-5.2,3-11.3,1-16.6c-1.5-4.1-4.5-7.4-8.5-9.2c-1.4-0.6-3.4-1.5-4.9-0.7
			C428.8,200.9,429.5,203.9,429.3,206.1z"/>
		<rect x="500.8" y="188.9" class="st8" width="72" height="3"/>
		<rect x="500.8" y="196.9" class="st8" width="72" height="3"/>
		<rect x="500.8" y="204.9" class="st8" width="72" height="3"/>
		<rect x="500.8" y="212.9" class="st8" width="72" height="3"/>
		<rect x="500.8" y="220.9" class="st8" width="72" height="3"/>
		<rect x="500.8" y="228.9" class="st8" width="72" height="3"/>
		<rect x="500.8" y="236.9" class="st8" width="72" height="3"/>
		<rect x="500.8" y="244.9" class="st8" width="72" height="3"/>
		<rect x="500.8" y="252.9" class="st8" width="72" height="3"/>
		<rect x="500.8" y="261" class="st8" width="72" height="3"/>
		<rect x="500.8" y="269" class="st8" width="72" height="3"/>
	</g>
	<g id="jabuka">
		<path class="st2" d="M808.3,300.4c0,0-9.1-3.1-13.5,5c-2.4,4.4-2.3,9.8,0.2,14.1c2.9,5.2,8.8,12,20.1,11.4
			c9.6-0.5,12.7-7.8,13.6-14.6c1-8.2-4.8-15.7-13-16.7c-2.3-0.3-4.7,0-6.9,0.7L808.3,300.4z"/>
		<path class="st14" d="M796.9,320.2c-2.5-4.4-2.5-9.7-0.2-14.1c4.4-8,13.5-5,13.5-5l0.5-0.2c3.5-1.3,7.3-1.2,10.7,0.2
			c-3.8-2.3-8.5-2.7-12.7-1.2l-0.5,0.2c0,0-9.1-3.1-13.5,5c-2.4,4.4-2.3,9.8,0.2,14.1c2.3,4.3,5.9,7.7,10.3,9.8
			C801.8,326.9,798.9,323.9,796.9,320.2z"/>
		<path class="st15" d="M803.6,304.3c0,0,3.4,2.7,11.6,0"/>
		<path class="st2" d="M802.9,285c0,0,5.8,15.7,5.3,19.8l4.6-0.5c0,0-7.7-13.8-5.8-19.3L802.9,285z"/>
		<path class="st15" d="M802.9,285c0,0,5.8,15.7,5.3,19.8l4.6-0.5c0,0-7.7-13.8-5.8-19.3L802.9,285z"/>
		<path class="st2" d="M826.6,286.3c0,0-9.1-4.7-13.2-0.8s-4.7,13.7-4.7,13.7S823.5,301.2,826.6,286.3z"/>
		<path class="st14" d="M826.6,286.3c0,0-9.1-4.7-13.2-0.8s-4.7,13.7-4.7,13.7S823.5,301.2,826.6,286.3z"/>
		<path class="st16" d="M808.7,299.2c0,0,2.4-11.5,17.9-12.9"/>
	</g>
</g>
<g id="covek_x5F_i_x5F_stolica">
	
		<linearGradient id="SVGID_2_" gradientUnits="userSpaceOnUse" x1="654.7686" y1="60.9999" x2="654.7686" y2="615.9313" gradientTransform="matrix(1 0 0 -1 -36.68 730.95)">
		<stop  offset="0" style="stop-color:#808080;stop-opacity:0.25"/>
		<stop  offset="0.54" style="stop-color:#808080;stop-opacity:0.12"/>
		<stop  offset="1" style="stop-color:#808080;stop-opacity:0.1"/>
	</linearGradient>
	<path class="st17" d="M756.2,425.8c5.9-13.8,7.4-29.1,4.3-43.8c-3.7-17.6-6-35.4-7.1-53.3c-1.1-17.1-3.6-28.3-6.4-35.5l0,0
		c0,0,1-23.3-14.8-35.5c-15.8-12.2-52.7-31.5-52.7-31.5l3.7-15.1H683c1.1-0.4,2.2-0.8,3.2-1.5c1.1-0.7,2-1.5,2.8-2.4
		c6.2-5.5,6.3-15.5,9.3-23.5c2.3-6.1,6.5-11.4,9.6-17.2c5.6-10.6,6.9-23.6,1.7-34.4s-17.5-18.5-29.7-17.1c-4,0.6-7.8,1.6-11.6,3.1
		c-8.9,3.1-15.9-5.7-24.7-2.6c-4.5,1.6-21.1,3.3-24.7,7.8c-0.8,0.5-1.4,1.4-1.7,2.3c-0.9,4.4,7.2,13.3,13.2,20.4
		c-4.8,5.8-7.4,13.1-7.4,20.7c0,0.2,0,0.3,0,0.5s0,0.3,0,0.5c0,8.8,3.6,17.3,10,23.4c-0.5,4.5-1.3,9.5-2.4,14.6h-0.7
		c0,0-4.2,18.3-17.9,18.3c-3.7,0-8.7-0.2-14-0.5c-16.1-0.8-32.3,1-47.8,5.5c-5.3,1.5-11.2,1.6-16.1-1.9
		c-11.8-8.5-24.4-30.1-26.2-33.1c1.3-8.8,1.1-24.8-17.1-27.8c-21.4-3.4-20.2,21.3-7.9,37.1c-0.3,0.8-0.5,1.6-0.6,2.4
		c-1,13.2,11.6,37.5,14.8,40.6s3.2,22.3,25.3,27.4s38,7.1,39,32.5s22.1,51.7,11.6,81.2c-6.3,17.7-4.7,26.9-2.3,31.5
		c-0.2,0.6-0.4,1.2-0.6,1.8c-2.4,7.3-5.4,14.6-8.7,19c-0.8,1-1.5,2.1-2.2,3.2c-8.6,5.6-17.5,11.8-21,15.6c-7.4,8.1-4.2,40.6,0,53.8
		s30.6,93.3,30.6,93.3h1l0.3,2l1.1,6.6c-0.3-0.2-0.7-0.4-1-0.6c-0.8-0.5-1.8-0.4-2.4,0.4c-0.1,0.1-0.1,0.2-0.1,0.3l-5.1,11.5
		c0,0-21.1-9.1-22.2,12.2c0,0.8,0,1.7,0,2.4c0,11.3,6.2,15.5,11.5,17.1c4.9,1.3,9.6,3.5,13.7,6.4c5.1,3.6,12.8,7.4,21.6,5.3
		c1.8-0.4,3.6-0.6,5.4-0.5c3.8,0.1,10.2-1,10-9.5c0-0.7,0-1.3,0-2c0,0-4.5-17.1-4.6-25c0-0.8,0.1-1.6,0.4-2.3c0.8-1.4,1-4.2,0.9-7.1
		c0-2.5-0.1-5.1-0.4-7.6c-0.1-0.6-0.7-1.1-1.3-1c-0.3,0-0.6,0.2-0.8,0.5l-0.2,0.2c-0.7-2.3-1.5-4.9-2.2-7.4l-0.6-2h1.4
		c0,0-8.4-49.8-5.3-53.8c2.1-2.7-1.3-34.4-3.8-56c25.7,1.6,66.6-2.9,94.6-4.3c5.4-0.3,10.6-1.7,15.3-4.3
		c-2.5,20.5-7.2,61.5-4.9,64.6c3.2,4.1-5.3,53.8-5.3,53.8h1.3l-0.5,1.5h0.2c-0.8,2.6-1.6,5.5-2.4,7.9l-0.2-0.2
		c-0.4-0.5-1.1-0.7-1.6-0.3c-0.3,0.2-0.5,0.5-0.5,0.8c-0.3,2.5-0.4,5.1-0.4,7.6c0,2.9,0.2,5.6,0.9,7.1c0.3,0.7,0.4,1.5,0.4,2.3
		c-0.2,7.9-4.6,25-4.6,25c0,0.7,0,1.3,0,2c-0.2,8.5,6.2,9.6,10,9.5c1.8-0.1,3.6,0.1,5.4,0.5c8.8,2,16.5-1.7,21.6-5.3
		c4.2-2.9,8.8-5.1,13.7-6.4c5.3-1.5,11.6-5.7,11.5-17.1c0-0.8,0-1.6,0-2.4c-1.1-21.3-22.2-12.2-22.2-12.2l-5.2-11.5
		c-0.4-0.9-1.4-1.2-2.3-0.8c-0.1,0-0.2,0.1-0.3,0.1c-0.3,0.2-0.7,0.4-1,0.6l1.4-8.7h1c0,0,26.3-80.2,30.6-93.3s7.4-45.7,0-53.8
		c-3.5-3.8-12.6-10.2-21.3-15.8c7.4,4.4,14.5,9.4,21.3,14.8L756.2,425.8z M710.7,436l-3.3-2c-0.7-1.2-1.5-2.3-2.5-3.3
		c-0.9-0.9-1.8-1.9-2.6-2.9c-2.1-6.2-9.7-32,0.5-45.3c7.4-9.7,7.9-28.4,7.3-40.7c5,24.5,12,59,12.7,66.1
		C723.5,416.7,714.5,430.6,710.7,436z"/>
	<path class="st18" d="M707.3,598.5l-4,26l-24-5c0,0,5-17,6-21s1,0,1,0H707.3z"/>
	<path class="st18" d="M599.3,619.5l-24,5l-2.8-18l-1.2-8h21c0,0,0-4,1,0c0.4,1.4,1.2,4.6,2.2,8
		C597.3,612.5,599.3,619.5,599.3,619.5z"/>
	<path class="st5" d="M595.6,606.5h-23l-1.2-8h21c0,0,0-4,1,0C593.7,599.9,594.6,603,595.6,606.5z"/>
	<path class="st5" d="M683.1,606h23l1.2-8h-21c0,0,0-4-1,0C685,599.4,684.1,602.5,683.1,606z"/>
	<path class="st18" d="M730.3,283.5c0,0,13,1,16,48c1.1,17.6,3.3,35.2,6.8,52.5c3,14.5,1.6,29.5-4,43.2l-12.8,31.3c0,0-24-20-32-19
		c0,0,14-19,13-30s-17-90-17-90L730.3,283.5z"/>
	<path class="st19" d="M580.3,432.5c0,0-31,19-38,27s-4,40,0,53s29,92,29,92h25c0,0-8-49-5-53s-6-75-6-75L580.3,432.5z"/>
	<path class="st19" d="M698.3,432.5c0,0,31,19,38,27s4,40,0,53s-29,92-29,92h-25c0,0,8-49,5-53s6-75,6-75L698.3,432.5z"/>
	<path class="st5" d="M580.3,432.5c0,0-31,19-38,27s-4,40,0,53s29,92,29,92h25c0,0-8-49-5-53s-6-75-6-75L580.3,432.5z"/>
	<path class="st5" d="M698.3,432.5c0,0,31,19,38,27s4,40,0,53s-29,92-29,92h-25c0,0,8-49,5-53s6-75,6-75L698.3,432.5z"/>
	<path class="st20" d="M633.3,179.4c0,0,0,39-14,59s64,3,64,3c-3.6-2.6-6.2-6.3-7.5-10.5c-4.1-14.7-5.7-40.5,0.5-51.5
		C685.3,163.4,633.3,179.4,633.3,179.4z"/>
	<circle class="st5" cx="655.8" cy="172.9" r="33"/>
	<circle class="st20" cx="655.8" cy="171.9" r="33"/>
	<path class="st19" d="M679.4,512.3c-35.8,1.6-95.3,8.2-104.3-1.6c-14.5-15.9-9.4-30.3-1.9-39c2.9-3.4,5.6-9.2,7.7-14.9
		c0.7-1.9,1.4-3.9,2-5.7c2.3-7.1,10-12,18.7-12h72.2c8.8,0,16.5,5,18.7,12.1c1,3.3,2.6,6.5,4.6,9.4c1.1,1.5,2.3,2.8,3.7,4
		c3.6,3.1,6,9.8,7.5,17.1C711.6,497.1,698,511.5,679.4,512.3z"/>
	<path class="st5" d="M679.4,512.3c-35.8,1.6-95.3,8.2-104.3-1.6c-14.5-15.9-9.4-30.3-1.9-39c2.9-3.4,5.6-9.2,7.7-14.9
		c0.7-1.9,1.4-3.9,2-5.7c2.3-7.1,10-12,18.7-12h72.2c8.8,0,16.5,5,18.7,12.1c1,3.3,2.6,6.5,4.6,9.4c1.1,1.5,2.3,2.8,3.7,4
		c3.6,3.1,6,9.8,7.5,17.1C711.6,497.1,698,511.5,679.4,512.3z"/>
	<path class="st5" d="M587.1,617.2c-3.1-0.6-11.3-2.4-14.5-4.8c-0.7-0.5-1.7-0.4-2.2,0.4c-0.1,0.1-0.1,0.2-0.2,0.3l-4.9,11.4
		c0,0-20-9-21,12c-0.6,12.3,5.6,16.7,10.9,18.2c4.7,1.3,9.1,3.4,13.1,6.3c4.8,3.6,12.1,7.3,20.5,5.3c1.7-0.4,3.4-0.6,5.1-0.5
		c3.7,0.1,10.2-1,9.5-10.3c0,0-6-24-4-28c1.3-2.5,0.9-9,0.5-13.5c-0.1-0.6-0.6-1-1.2-1c-0.3,0-0.6,0.2-0.8,0.4
		c-1.7,2.6-4.6,4.1-7.7,4C589.1,617.5,588.1,617.4,587.1,617.2z"/>
	<path class="st21" d="M587.1,618.2c-3.1-0.6-11.3-2.4-14.5-4.8c-0.7-0.5-1.7-0.4-2.2,0.4c-0.1,0.1-0.1,0.2-0.2,0.3l-4.9,11.4
		c0,0-20-9-21,12c-0.6,12.3,5.6,16.7,10.9,18.2c4.7,1.3,9.1,3.4,13.1,6.3c4.8,3.6,12.1,7.3,20.5,5.3c1.7-0.4,3.4-0.6,5.1-0.5
		c3.7,0.1,10.2-1,9.5-10.3c0,0-6-24-4-28c1.3-2.5,0.9-9,0.5-13.5c-0.1-0.6-0.6-1-1.2-1c-0.3,0-0.6,0.2-0.8,0.4
		c-1.7,2.6-4.6,4.1-7.7,4C589.1,618.5,588.1,618.4,587.1,618.2z"/>
	<path class="st5" d="M691.6,617.2c3.1-0.6,11.3-2.4,14.5-4.8c0.7-0.5,1.7-0.4,2.2,0.4c0.1,0.1,0.1,0.2,0.2,0.3l4.9,11.4
		c0,0,20-9,21,12c0.6,12.3-5.6,16.7-10.9,18.2c-4.7,1.3-9.1,3.4-13,6.3c-4.8,3.6-12.1,7.3-20.5,5.3c-1.7-0.4-3.4-0.6-5.1-0.5
		c-3.7,0.1-10.2-1-9.5-10.3c0,0,6-24,4-28c-1.3-2.5-0.9-9-0.5-13.5c0.1-0.6,0.6-1,1.2-1c0.3,0,0.6,0.2,0.8,0.4
		c1.7,2.6,4.6,4.1,7.7,4C689.6,617.5,690.6,617.4,691.6,617.2z"/>
	<path class="st21" d="M691.6,618.2c3.1-0.6,11.3-2.4,14.5-4.8c0.7-0.5,1.7-0.4,2.2,0.4c0.1,0.1,0.1,0.2,0.2,0.3l4.9,11.4
		c0,0,20-9,21,12c0.6,12.3-5.6,16.7-10.9,18.2c-4.7,1.3-9.1,3.4-13,6.3c-4.8,3.6-12.1,7.3-20.5,5.3c-1.7-0.4-3.4-0.6-5.1-0.5
		c-3.7,0.1-10.2-1-9.5-10.3c0,0,6-24,4-28c-1.3-2.5-0.9-9-0.5-13.5c0.1-0.6,0.6-1,1.2-1c0.3,0,0.6,0.2,0.8,0.4
		c1.7,2.6,4.6,4.1,7.7,4C689.6,618.5,690.6,618.4,691.6,618.2z"/>
	<path class="st20" d="M512.3,204.4c0,0,9-29-15-33s-18,31,0,44S512.3,204.4,512.3,204.4z"/>
	<path class="st5" d="M698.3,433.5c-28,46-122-6-122-6s-2.2-1.2-3.8-5.2c0.8-2.4,1.5-4.9,2.1-7.2c2.5-9,10.6-15.2,19.9-15.1h77
		c9.3,0,17.5,6.2,19.9,15.2c1.1,4.1,2.7,8.1,4.9,11.7C697.4,431,698.3,433.5,698.3,433.5z"/>
	<path class="st18" d="M635.3,210.4h-6c0,0-4,18-17,18c-3.5,0-8.2-0.2-13.3-0.5c-15.3-0.8-30.7,1-45.4,5.4
		c-5.1,1.5-10.6,1.6-15.3-1.9c-12-9-25-33-25-33s-23-1-24,12s11,37,14,40s3,22,24,27s36,7,37,32s21,51,11,80s1,35,1,35s94,52,122,6
		c0,0-11-31,0-46s6-52,6-52l36-36c0,0,1-23-14-35c-15-12-50-31-50-31l3.5-14.9L635.3,210.4z"/>
	<path class="st5" d="M636.4,182.1c-0.8,9.4-0.5,20.1,6.5,26.5c3.4,3.1,8,4.7,12.5,5.8c4.7,1.1,9.6,1.9,14.4,2.1
		c4.4,0.2,9.2,0,12.9-2.4c7.6-4.9,7.5-15.9,10.5-24.5c2.2-6.1,6.2-11.2,9.1-17c5.3-10.4,6.5-23.3,1.6-33.9s-16.5-18.2-28.2-16.9
		c-3.8,0.6-7.5,1.6-11,3.1c-8.4,3.1-15-5.6-23.5-2.6c-4.6,1.7-22.9,3.5-24,9c-1.3,6.5,16.4,22.7,18.3,28.4
		C638.1,167.2,636.4,174.6,636.4,182.1z"/>
	<path class="st22" d="M637.4,181.1c-0.8,9.4-0.5,20.1,6.5,26.5c3.4,3.1,8,4.7,12.5,5.8c4.7,1.1,9.6,1.9,14.4,2.1
		c4.4,0.2,9.2,0,12.9-2.4c7.6-4.9,7.5-15.9,10.5-24.5c2.2-6.1,6.2-11.2,9.1-17c5.3-10.4,6.5-23.3,1.6-33.9s-16.5-18.2-28.2-16.9
		c-3.8,0.6-7.5,1.6-11,3.1c-8.4,3.1-15-5.6-23.5-2.6c-4.6,1.7-22.9,3.5-24,9c-1.3,6.5,16.4,22.7,18.3,28.4
		C639.1,166.2,637.4,173.6,637.4,181.1z"/>
	<path class="st5" d="M622.8,223.4c0,0,6,2.5,23,7.5s30,0,30,0"/>
	<path class="st5" d="M577.8,366.4c0,0,28,1.6,37,13.6s12,16,23,16s46,2,51,4"/>
	<rect x="636.5" y="669.4" class="st6" width="16.7" height="19.1"/>
	<rect x="741.6" y="434.1" class="st23" width="13.1" height="96.7"/>
	<rect x="720.1" y="529.7" class="st23" width="28.7" height="3.6"/>
	<rect x="536.2" y="434.1" class="st23" width="13.1" height="96.7"/>
	<rect x="538.5" y="529.7" class="st23" width="28.7" height="3.6"/>
	<rect x="632.9" y="535.6" class="st6" width="27.5" height="117"/>
	<path class="st23" d="M647.2,493.7c74,2.6,76.4-25.8,76.4-25.8l-4.8-78.6c-1.2-122.4-71.7-104.4-71.7-104.4s-70.5-18-71.7,104.4
		l-4.8,78.6C570.8,467.9,573.2,496.2,647.2,493.7z"/>
	<path class="st14" d="M647.2,493.7c74,2.6,76.4-25.8,76.4-25.8l-4.8-78.6c-1.2-122.4-71.7-104.4-71.7-104.4s-70.5-18-71.7,104.4
		l-4.8,78.6C570.8,467.9,573.2,496.2,647.2,493.7z"/>
	<path class="st23" d="M645.2,488.8c70.6,2.5,72.8-24.6,72.8-24.6l-4.5-74.9c-1.1-116.7-68.3-99.5-68.3-99.5s-67.2-17.2-68.3,99.5
		l-4.5,74.9C572.4,464.2,574.7,491.2,645.2,488.8z"/>
	<path class="st6" d="M643,456.8h4.9c6.9,0,12.5,5.6,12.5,12.5v26.4c0,6.9-5.6,12.5-12.5,12.5H643c-6.9,0-12.5-5.6-12.5-12.5v-26.4
		C630.5,462.4,636.1,456.8,643,456.8z"/>
	<path class="st5" d="M660.3,648.5v4.2h-27.4v-4.1l2.4-0.6H658L660.3,648.5z"/>
	<path class="st6" d="M535,688.5c0,0-12-9.5,100.4-39.4H658c0,0,96.7,23.9,97.9,39.4h-14.3c0,0-52.5-15.5-76.4-15.5
		s-95.5,2.4-117,15.5L535,688.5z"/>
	<path class="st23" d="M539.6,419.8h5c7.2,0,13,5.8,13,13l0,0v6.1l0,0h-31l0,0v-6.1C526.6,425.6,532.4,419.8,539.6,419.8
		L539.6,419.8z"/>
	<path class="st23" d="M745,419.8h5c7.2,0,13,5.8,13,13l0,0v6.1l0,0h-31l0,0v-6.1C732,425.6,737.8,419.8,745,419.8L745,419.8z"/>
	<circle class="st24" cx="540.9" cy="696.9" r="8.4"/>
	<circle class="st24" cx="644.8" cy="696.9" r="8.4"/>
	<circle class="st24" cx="749.9" cy="696.9" r="8.4"/>
	<rect x="632.9" y="535.6" class="st5" width="27.5" height="4.8"/>
	<path class="st23" d="M647.2,538h80l6-11.9c3.6-20.3-9.5-21.5-9.5-21.5H570.8c0,0-13.1,1.2-9.5,21.5l6,11.9H647.2z"/>
	<path class="st14" d="M647.2,538h80l6-11.9c3.6-20.3-9.5-21.5-9.5-21.5H570.8c0,0-13.1,1.2-9.5,21.5l6,11.9H647.2z"/>
	<path class="st23" d="M647.2,538h80l6-10.2c3.6-17.4-9.5-18.4-9.5-18.4H570.8c0,0-13.1,1-9.5,18.4l6,10.2H647.2z"/>
</g>
</svg>
