<svg xmlns="http://www.w3.org/2000/svg" xmlns:xlink="http://www.w3.org/1999/xlink" width="711" height="495.969" viewBox="0 0 711 495.969">
  <defs>
    <style>
      .cls-1, .cls-6 {
        fill: #3182ce;
      }

      .cls-1, .cls-21, .cls-5 {
        opacity: 0.1;
      }

      .cls-2 {
        fill: #474059;
      }

      .cls-21, .cls-3, .cls-8 {
        fill: #fff;
      }

      .cls-4 {
        fill: #c0bccf;
      }

      .cls-23, .cls-7 {
        fill: none;
        stroke-miterlimit: 10;
      }

      .cls-7 {
        stroke: #535461;
        stroke-width: 2px;
      }

      .cls-8 {
        opacity: 0.5;
      }

      .cls-9 {
        fill: #e8eaf1;
      }

      .cls-10 {
        fill: url(#linear-gradient);
      }

      .cls-11 {
        fill: #b96b6b;
      }

      .cls-12 {
        fill: #ffb9b9;
      }

      .cls-13 {
        fill: #fec5d9;
      }

      .cls-14 {
        fill: #747b9c;
      }

      .cls-15 {
        fill: url(#linear-gradient-2);
      }

      .cls-16 {
        fill: #d6e6f9;
      }

      .cls-17 {
        fill: #5f546f;
      }

      .cls-18 {
        fill: #ffced8;
      }

      .cls-19 {
        fill: #bc8387;
      }

      .cls-20 {
        fill: #ae767a;
      }

      .cls-22 {
        opacity: 0.2;
      }

      .cls-23 {
        stroke: #3182ce;
      }
    </style>
    <linearGradient id="linear-gradient" x1="0.499" y1="1" x2="0.499" y2="-0.001" gradientUnits="objectBoundingBox">
      <stop offset="0" stop-color="gray" stop-opacity="0.251"/>
      <stop offset="0.54" stop-color="gray" stop-opacity="0.122"/>
      <stop offset="1" stop-color="gray" stop-opacity="0.102"/>
    </linearGradient>
    <linearGradient id="linear-gradient-2" x1="0.5" y1="1" x2="0.5" y2="0" xlink:href="#linear-gradient"/>
  </defs>
  <g id="undraw_social_networking_nqk4" transform="translate(0.066 0.009)">
    <path id="Fleka" class="cls-1" d="M710.448,346.221c-24.706,33.9-16.553,82.291-2.272,120.843,4.784,12.905,10.217,26.555,7.737,40.6-3.029,17.165-17.266,30.026-32.065,37.031C656.87,557.458,625,555.42,600.869,539.334c-20.825-13.884-35.485-36.955-56.714-50.176-35.529-22.119-81.654-12.236-121.2,4.651-27.975,11.946-58.62,27.332-85.882,16.3-19.184-7.762-32.1-27.521-38.9-48.643-3.282-10.2-5.579-21.267-12.117-29.25-3.887-4.746-9.024-8.052-14.306-10.816-48.207-25.243-110.216-9.466-156.953-37.631-31.553-19.02-51.192-55.932-59.352-94.736S49.31,209.267,52.56,169c2.31-28.613,5.964-59.188,23.166-81.673,18.194-23.779,48.687-33.232,75.955-29.5s51.71,18.894,73.1,36.943c26.738,22.561,51.356,50.877,84.632,59.434,22.662,5.831,46.737,1.7,70.295-.12,39.379-3.042,78.618.461,117.618,4.417,37.334,3.786,74.927,8.015,110.285,20.428,25.022,8.784,44.856,25.388,68.414,36.734,15.354,7.4,32.248,9.113,46.7,18.667,17.834,11.769,33.951,32.62,28.72,57.642C746.507,315.753,723.562,328.229,710.448,346.221Z" transform="translate(-41.515 -57.05)"/>
    <g id="Monitor">
      <rect id="Rectangle_8" data-name="Rectangle 8" class="cls-2" width="129.659" height="87.113" rx="9.61" transform="translate(240.192 100.28)"/>
      <rect id="Rectangle_9" data-name="Rectangle 9" class="cls-3" width="123.929" height="71.166" transform="translate(242.918 110.453)"/>
      <ellipse id="Ellipse_3" data-name="Ellipse 3" class="cls-3" cx="1.092" cy="1.18" rx="1.092" ry="1.18" transform="translate(303.791 105.593)"/>
      <rect id="Rectangle_10" data-name="Rectangle 10" class="cls-2" width="22.718" height="23.981" transform="translate(293.321 184.237)"/>
      <path id="Path_2" data-name="Path 2" class="cls-2" d="M459.626,326.95h27.767a3.786,3.786,0,0,1,3.786,3.786H455.84a3.786,3.786,0,0,1,3.786-3.786Z" transform="translate(-168.198 -120.626)"/>
    </g>
    <g id="Sto">
      <rect id="Rectangle_11" data-name="Rectangle 11" class="cls-4" width="93.398" height="32.184" transform="translate(146.914 226.518)"/>
      <rect id="Rectangle_12" data-name="Rectangle 12" class="cls-4" width="20.194" height="175.437" transform="translate(528.079 210.742)"/>
      <rect id="Rectangle_13" data-name="Rectangle 13" class="cls-5" width="93.398" height="1.893" transform="translate(146.914 226.518)"/>
      <rect id="Rectangle_14" data-name="Rectangle 14" class="cls-5" width="20.194" height="17.67" transform="translate(528.079 210.742)"/>
      <rect id="Rectangle_15" data-name="Rectangle 15" class="cls-4" width="93.398" height="32.184" transform="translate(146.914 257.441)"/>
      <circle id="Ellipse_4" data-name="Ellipse 4" class="cls-6" cx="5.68" cy="5.68" r="5.68" transform="translate(187.933 267.538)"/>
      <circle id="Ellipse_5" data-name="Ellipse 5" class="cls-6" cx="5.68" cy="5.68" r="5.68" transform="translate(187.933 236.616)"/>
      <rect id="Rectangle_16" data-name="Rectangle 16" class="cls-4" width="93.398" height="32.184" transform="translate(146.914 289.625)"/>
      <circle id="Ellipse_6" data-name="Ellipse 6" class="cls-6" cx="5.68" cy="5.68" r="5.68" transform="translate(187.933 299.091)"/>
      <rect id="Rectangle_17" data-name="Rectangle 17" class="cls-4" width="93.398" height="32.184" transform="translate(146.914 321.81)"/>
      <circle id="Ellipse_7" data-name="Ellipse 7" class="cls-6" cx="5.68" cy="5.68" r="5.68" transform="translate(187.933 331.276)"/>
      <rect id="Rectangle_18" data-name="Rectangle 18" class="cls-4" width="93.398" height="32.184" transform="translate(146.914 353.994)"/>
      <circle id="Ellipse_8" data-name="Ellipse 8" class="cls-6" cx="5.68" cy="5.68" r="5.68" transform="translate(187.933 363.46)"/>
      <rect id="Rectangle_19" data-name="Rectangle 19" class="cls-5" width="93.398" height="2.524" transform="translate(146.914 287.732)"/>
      <rect id="Rectangle_20" data-name="Rectangle 20" class="cls-5" width="93.398" height="2.524" transform="translate(146.914 256.179)"/>
      <rect id="Rectangle_21" data-name="Rectangle 21" class="cls-5" width="93.398" height="2.524" transform="translate(146.914 319.917)"/>
      <rect id="Rectangle_22" data-name="Rectangle 22" class="cls-5" width="93.398" height="2.524" transform="translate(146.914 352.101)"/>
      <rect id="Rectangle_23" data-name="Rectangle 23" class="cls-4" width="405.777" height="18.932" transform="translate(145.02 208.218)"/>
    </g>
    <g id="Cvece">
      <path id="Path_3" data-name="Path 3" class="cls-7" d="M151.918,527.864s-2.083-61.693-35.46-96.553A93.515,93.515,0,0,1,90.812,378a157.3,157.3,0,0,1-.783-28.758" transform="translate(-56.266 -164.852)"/>
      <path id="Path_4" data-name="Path 4" class="cls-6" d="M56.7,304.153c2.284,6.891,21.381,22.718,21.381,22.718s5.85-24.113,3.566-31A13.141,13.141,0,0,0,56.7,304.147Z" transform="translate(-43.841 -141.84)"/>
      <path id="Path_5" data-name="Path 5" class="cls-6" d="M41.572,371.877c5.68,4.544,30.291,7.459,30.291,7.459s-8.2-23.419-13.883-27.956a13.142,13.142,0,0,0-16.446,20.5Z" transform="translate(-36.68 -164.575)"/>
      <path id="Path_6" data-name="Path 6" class="cls-6" d="M73.61,473.116c7.182,1.06,29.919-8.835,29.919-8.835s-18.9-16.1-26.076-17.165a13.141,13.141,0,0,0-3.843,26Z" transform="translate(-46.189 -200.909)"/>
      <path id="Path_7" data-name="Path 7" class="cls-6" d="M119.388,545.155c6.9,2.259,30.985-3.673,30.985-3.673s-15.909-19.039-22.807-21.3a13.142,13.142,0,1,0-8.2,24.971Z" transform="translate(-63.872 -227.675)"/>
      <path id="Path_8" data-name="Path 8" class="cls-6" d="M119.911,374.492c-3.351,6.437-24.719,19.046-24.719,19.046s-1.944-24.732,1.407-31.175a13.139,13.139,0,0,1,23.312,12.129Z" transform="translate(-58.084 -167.082)"/>
      <path id="Path_9" data-name="Path 9" class="cls-6" d="M168.582,457.173c-5.124,5.143-29.282,10.772-29.282,10.772s5.547-24.183,10.665-29.326a13.139,13.139,0,1,1,18.617,18.547Z" transform="translate(-74.564 -196.401)"/>
      <path id="Path_10" data-name="Path 10" class="cls-6" d="M208.191,546.958c-4.178,5.932-27.041,15.568-27.041,15.568s1.376-24.769,5.56-30.708a13.139,13.139,0,1,1,21.456,15.146Z" transform="translate(-90.004 -230.027)"/>
      <path id="Path_11" data-name="Path 11" class="cls-7" d="M176.67,534.708s18.932-27.54,15.613-53.451a50.637,50.637,0,0,1,5.983-31.465A85.192,85.192,0,0,1,207.17,437" transform="translate(-88.351 -197.229)"/>
      <path id="Path_12" data-name="Path 12" class="cls-6" d="M221.679,408.275c-1.218,3.736,2,16.774,2,16.774s10.305-8.62,11.523-12.35a7.113,7.113,0,1,0-13.524-4.417Z" transform="translate(-104.855 -184.824)"/>
      <path id="Path_13" data-name="Path 13" class="cls-6" d="M193.271,432.895c1,3.786,10.8,12.994,10.8,12.994s3.963-12.836,2.96-16.635a7.115,7.115,0,0,0-13.757,3.641Z" transform="translate(-94.387 -192.417)"/>
      <path id="Path_14" data-name="Path 14" class="cls-6" d="M174.642,487.285c2.783,2.77,15.878,5.768,15.878,5.768s-3.054-13.082-5.844-15.852a7.117,7.117,0,1,0-10.034,10.1Z" transform="translate(-86.828 -211.297)"/>
      <path id="Path_15" data-name="Path 15" class="cls-6" d="M171.421,533.431c2.278,3.2,14.679,8.368,14.679,8.368s-.8-13.41-3.08-16.61a7.114,7.114,0,0,0-11.6,8.242Z" transform="translate(-85.929 -228.661)"/>
      <path id="Path_16" data-name="Path 16" class="cls-6" d="M222.767,459.336c-3.528,1.729-16.887.341-16.887.341s7.106-11.4,10.64-13.1a7.114,7.114,0,0,1,6.254,12.779Z" transform="translate(-99.128 -200.494)"/>
      <path id="Path_17" data-name="Path 17" class="cls-6" d="M218.193,512.193c-3.887.587-16.193-4.7-16.193-4.7s10.192-8.747,14.079-9.34a7.114,7.114,0,1,1,2.139,14.066Z" transform="translate(-97.696 -219.76)"/>
      <path id="Path_18" data-name="Path 18" class="cls-6" d="M205.9,563.426c-3.73,1.262-16.786-1.893-16.786-1.893s8.57-10.343,12.3-11.586a7.115,7.115,0,1,1,4.487,13.5Z" transform="translate(-92.941 -238.764)"/>
      <path id="Path_19" data-name="Path 19" class="cls-8" d="M221.679,408.275c-1.218,3.736,2,16.774,2,16.774s10.305-8.62,11.523-12.35a7.113,7.113,0,1,0-13.524-4.417Z" transform="translate(-104.855 -184.824)"/>
      <path id="Path_20" data-name="Path 20" class="cls-8" d="M193.271,432.895c1,3.786,10.8,12.994,10.8,12.994s3.963-12.836,2.96-16.635a7.115,7.115,0,0,0-13.757,3.641Z" transform="translate(-94.387 -192.417)"/>
      <path id="Path_21" data-name="Path 21" class="cls-8" d="M174.642,487.285c2.783,2.77,15.878,5.768,15.878,5.768s-3.054-13.082-5.844-15.852a7.117,7.117,0,1,0-10.034,10.1Z" transform="translate(-86.828 -211.297)"/>
      <path id="Path_22" data-name="Path 22" class="cls-8" d="M171.421,533.431c2.278,3.2,14.679,8.368,14.679,8.368s-.8-13.41-3.08-16.61a7.114,7.114,0,0,0-11.6,8.242Z" transform="translate(-85.929 -228.661)"/>
      <path id="Path_23" data-name="Path 23" class="cls-8" d="M222.767,459.336c-3.528,1.729-16.887.341-16.887.341s7.106-11.4,10.64-13.1a7.114,7.114,0,0,1,6.254,12.779Z" transform="translate(-99.128 -200.494)"/>
      <path id="Path_24" data-name="Path 24" class="cls-8" d="M218.193,512.193c-3.887.587-16.193-4.7-16.193-4.7s10.192-8.747,14.079-9.34a7.114,7.114,0,1,1,2.139,14.066Z" transform="translate(-97.696 -219.76)"/>
      <path id="Path_25" data-name="Path 25" class="cls-8" d="M205.9,563.426c-3.73,1.262-16.786-1.893-16.786-1.893s8.57-10.343,12.3-11.586a7.115,7.115,0,1,1,4.487,13.5Z" transform="translate(-92.941 -238.764)"/>
      <path id="Path_26" data-name="Path 26" class="cls-2" d="M156.15,605.1H102.3L88.84,522.98h80.777Z" transform="translate(-32.8 -192.948)"/>
      <path id="Path_27" data-name="Path 27" class="cls-5" d="M166.658,522.98l-12.577,76.738H108.77l.883,5.383H163.5l13.467-82.121Z" transform="translate(-40.153 -192.948)"/>
    </g>
    <g id="SadrzajEkrana">
      <rect id="Rectangle_24" data-name="Rectangle 24" class="cls-9" width="58.058" height="61.359" transform="translate(245.991 115.375)"/>
      <rect id="Rectangle_25" data-name="Rectangle 25" class="cls-3" width="55.534" height="58.689" transform="translate(247.253 116.713)"/>
      <path id="Path_28" data-name="Path 28" class="cls-10" d="M479.271,285.53c.776-6.147-.776-6.532-.776-6.532l-2.228-1.066a9.208,9.208,0,0,0,.044-1.085,7.755,7.755,0,0,0,0-.9c-.221-2.423-1.66-4.537-2.682-6.746a20.237,20.237,0,0,1-1.754-6.456c-.271-2.758,0-5.623-.947-8.2a14.754,14.754,0,0,0-3.932-5.4,19.9,19.9,0,0,0-6.311-4.279,10.413,10.413,0,0,0-7.516-.215,16.426,16.426,0,0,0-5.415,4.184,19.082,19.082,0,0,0-3.061,3.723,16.828,16.828,0,0,0-1.723,5.629,93.078,93.078,0,0,0-1.06,9.409c-.17,2.625-.429,5.61-2.524,7.226-1.029.789-2.467,1.231-2.941,2.423a2.652,2.652,0,0,0-.151,1.123,4.494,4.494,0,0,0,.063.953,2.811,2.811,0,0,0,.107.549,42.941,42.941,0,0,0-1.515,4.916,129.64,129.64,0,0,0-3.111,17.285h37.435a4.419,4.419,0,0,0,1.067,0h9.737Z" transform="translate(-182.491 -126.044)"/>
      <rect id="Rectangle_26" data-name="Rectangle 26" class="cls-11" width="21.488" height="16.212" transform="translate(264.393 133.998)"/>
      <rect id="Rectangle_27" data-name="Rectangle 27" class="cls-5" width="21.488" height="16.212" transform="translate(264.393 133.998)"/>
      <path id="Path_29" data-name="Path 29" class="cls-12" d="M477.272,289.009,468.979,300.7l-8.7-.751s-11.309.751-3.786-7.92c3.622-4.165,4.809-7.636,5.049-10.1A7.844,7.844,0,0,0,461,277.72l9.428-1.13a7.03,7.03,0,0,0-.151,3.932C471.5,285.406,477.272,289.009,477.272,289.009Z" transform="translate(-190.633 -138.049)"/>
      <path id="Path_30" data-name="Path 30" class="cls-5" d="M474.51,280.484a9.422,9.422,0,0,1-8.734,1.395,7.845,7.845,0,0,0-.536-4.209l9.428-1.13A7.031,7.031,0,0,0,474.51,280.484Z" transform="translate(-194.814 -138.03)"/>
      <circle id="Ellipse_9" data-name="Ellipse 9" class="cls-12" cx="9.428" cy="9.428" r="9.428" transform="translate(264.576 125.131)"/>
      <path id="Path_31" data-name="Path 31" class="cls-5" d="M462.993,303.084s3.4-4.146,3.4-7.541a7.623,7.623,0,0,1,4.525-3.786c3.4-1.13,3.016,0,3.016,0l2.259,9.05-.751,16.212.379,1.893H447.91l1.893-7.541-.385-6.393,1.508-9.8,4.525-2.638,3.4,4.525Z" transform="translate(-188.42 -143.459)"/>
      <path id="Path_32" data-name="Path 32" class="cls-13" d="M462.993,303.694s3.4-4.146,3.4-7.541a7.623,7.623,0,0,1,4.525-3.786c3.4-1.13,3.016,0,3.016,0l2.259,9.049-.751,16.212.379,1.893H447.91l1.893-7.541-.379-6.412,1.508-9.8,4.525-2.638,3.4,4.525Z" transform="translate(-188.42 -143.684)"/>
      <path id="Path_33" data-name="Path 33" class="cls-5" d="M452.43,292.09l-11.687,1.893s-1.893-.379-4.146,8.671a128.75,128.75,0,0,0-3.016,16.963h14.578s.877-15.083,3.155-16.212l3.155-4.878s-5.049-.4-4.3-3.035A5.342,5.342,0,0,1,452.43,292.09Z" transform="translate(-183.133 -143.767)"/>
      <path id="Path_34" data-name="Path 34" class="cls-14" d="M451.837,292.09l-11.687,1.893s-1.893-.379-4.146,8.671a128.733,128.733,0,0,0-3,16.957h14.578s.877-15.083,3.155-16.212l3.155-4.878s-5.049-.4-4.3-3.035A5.328,5.328,0,0,1,451.837,292.09Z" transform="translate(-182.919 -143.767)"/>
      <path id="Path_35" data-name="Path 35" class="cls-5" d="M484.36,290.3l12.438,6.033s1.508.379.751,6.412l.751,16.212H484.922a48.347,48.347,0,0,0,.568-15.455A103.3,103.3,0,0,1,484.36,290.3Z" transform="translate(-201.868 -143.107)"/>
      <path id="Path_36" data-name="Path 36" class="cls-14" d="M485,290.3l12.438,6.033s1.508.379.751,6.412l.751,16.212h-13.4A48.345,48.345,0,0,0,486.1,303.5a103.3,103.3,0,0,1-1.1-13.2Z" transform="translate(-202.104 -143.107)"/>
      <path id="Path_37" data-name="Path 37" class="cls-5" d="M456.137,257.218c-.164,1.527-1.212,2.783-2.083,4.051s-1.628,2.833-1.142,4.291c.189.568.562,1.073.694,1.66.227,1.01-.284,2.051-.2,3.08.12,1.414,1.319,2.461,1.982,3.711,1.4,2.644.328,5.919-1.186,8.494s-3.5,5.017-3.995,7.964c-.461,2.726.423,5.484,1.376,8.078a2.525,2.525,0,0,1,.215,1.622c-.29.871-1.382,1.13-2.3,1.193a24.289,24.289,0,0,1-3.023,0,2.524,2.524,0,0,1-1.1-.234c-.694-.379-.9-1.262-1.161-1.994s-.827-1.565-1.616-1.483c-.518.057-.921.5-1.433.587a1.477,1.477,0,0,1-1.262-.517c-.94-1.016-.713-2.657-.095-3.894a25.723,25.723,0,0,0,1.975-3.635c1.016-3.282-1.527-6.532-2.064-9.927a3.205,3.205,0,0,1,.088-1.666c.461-1.174,1.855-1.609,2.852-2.379,2.038-1.584,2.291-4.518,2.455-7.093a92.561,92.561,0,0,1,.984-9.232,16.68,16.68,0,0,1,1.666-5.522,18.686,18.686,0,0,1,2.966-3.654,15.742,15.742,0,0,1,5.25-4.1,9.971,9.971,0,0,1,7.283.208,19.28,19.28,0,0,1,6.128,4.234,14.478,14.478,0,0,1,3.786,5.295c.928,2.556.631,5.37.915,8.078a20.06,20.06,0,0,0,1.7,6.311c.991,2.171,2.385,4.247,2.6,6.626.17,1.893-.448,3.786-.764,5.648a37.081,37.081,0,0,0,.107,9.889,7.96,7.96,0,0,0,.492,2.329,8.324,8.324,0,0,0,2.247,2.695.966.966,0,0,1,.4.631.764.764,0,0,1-.3.555c-1.142,1.016-3.117.265-4.354,1.167a7,7,0,0,0-.94,1,4.241,4.241,0,0,1-7.264-1.969c-.322-1.477.158-2.991.341-4.493.568-4.739-1.855-9.245-3.786-13.606-.909-2.038-1.735-4.247-1.4-6.456.271-1.773,1.262-3.332,1.988-4.973a14.006,14.006,0,0,0,.631-10.476,10.381,10.381,0,0,0-5.339-5.812c-.9-.4-2.171-.959-3.111-.417C455.79,253.961,456.264,255.8,456.137,257.218Z" transform="translate(-185.232 -126.773)"/>
      <path id="Path_38" data-name="Path 38" class="cls-11" d="M456.137,256.614c-.164,1.527-1.212,2.783-2.083,4.051s-1.628,2.833-1.142,4.291c.189.568.562,1.073.694,1.66.227,1.01-.284,2.051-.2,3.08.12,1.414,1.319,2.461,1.982,3.711,1.4,2.644.328,5.919-1.186,8.494s-3.5,5.017-3.995,7.964c-.461,2.726.423,5.484,1.376,8.078a2.525,2.525,0,0,1,.215,1.622c-.29.871-1.382,1.13-2.3,1.193a24.3,24.3,0,0,1-3.023,0,2.524,2.524,0,0,1-1.1-.234c-.694-.379-.9-1.262-1.161-1.994s-.827-1.565-1.616-1.483c-.518.057-.921.5-1.433.587a1.477,1.477,0,0,1-1.262-.517c-.94-1.016-.713-2.657-.095-3.894a25.721,25.721,0,0,0,1.975-3.635c1.016-3.282-1.527-6.532-2.064-9.927a3.205,3.205,0,0,1,.088-1.666c.461-1.174,1.855-1.609,2.852-2.379,2.038-1.584,2.291-4.518,2.455-7.093a92.527,92.527,0,0,1,1.022-9.239,16.677,16.677,0,0,1,1.666-5.522,18.686,18.686,0,0,1,2.966-3.654,15.742,15.742,0,0,1,5.25-4.1,9.971,9.971,0,0,1,7.283.208,19.28,19.28,0,0,1,6.115,4.2,14.477,14.477,0,0,1,3.786,5.295c.928,2.556.631,5.37.915,8.078a20.062,20.062,0,0,0,1.7,6.311c.991,2.171,2.385,4.247,2.6,6.626.17,1.893-.448,3.786-.764,5.648a37.081,37.081,0,0,0,.107,9.889,7.957,7.957,0,0,0,.48,2.341,8.323,8.323,0,0,0,2.247,2.695.965.965,0,0,1,.4.631.764.764,0,0,1-.3.555c-1.142,1.016-3.117.265-4.354,1.167a7,7,0,0,0-.94,1,4.241,4.241,0,0,1-7.264-1.969c-.322-1.477.158-2.991.341-4.493.568-4.739-1.855-9.245-3.786-13.606-.909-2.038-1.735-4.247-1.4-6.456.271-1.773,1.262-3.332,1.988-4.973a14.006,14.006,0,0,0,.631-10.476,10.381,10.381,0,0,0-5.339-5.812c-.9-.4-2.171-.959-3.111-.417C455.79,253.358,456.264,255.207,456.137,256.614Z" transform="translate(-185.232 -126.548)"/>
      <rect id="Rectangle_28" data-name="Rectangle 28" class="cls-9" width="45.437" height="1.893" transform="translate(316.04 119.237)"/>
      <rect id="Rectangle_29" data-name="Rectangle 29" class="cls-9" width="45.437" height="1.893" transform="translate(316.04 124.286)"/>
      <rect id="Rectangle_30" data-name="Rectangle 30" class="cls-9" width="45.437" height="1.893" transform="translate(316.04 129.334)"/>
      <rect id="Rectangle_31" data-name="Rectangle 31" class="cls-9" width="45.437" height="1.893" transform="translate(316.04 134.383)"/>
      <rect id="Rectangle_32" data-name="Rectangle 32" class="cls-9" width="45.437" height="1.893" transform="translate(316.04 139.431)"/>
      <rect id="Rectangle_33" data-name="Rectangle 33" class="cls-9" width="45.437" height="1.893" transform="translate(316.04 144.48)"/>
      <rect id="Rectangle_34" data-name="Rectangle 34" class="cls-9" width="45.437" height="1.893" transform="translate(316.04 149.528)"/>
      <rect id="Rectangle_35" data-name="Rectangle 35" class="cls-9" width="45.437" height="1.893" transform="translate(316.04 154.577)"/>
      <rect id="Rectangle_36" data-name="Rectangle 36" class="cls-9" width="45.437" height="1.893" transform="translate(316.04 159.625)"/>
      <rect id="Rectangle_37" data-name="Rectangle 37" class="cls-9" width="45.437" height="1.893" transform="translate(316.04 164.674)"/>
      <rect id="Rectangle_38" data-name="Rectangle 38" class="cls-9" width="45.437" height="1.893" transform="translate(316.04 169.722)"/>
    </g>
    <g id="Covek">
      <path id="Path_39" data-name="Path 39" class="cls-15" d="M688.809,368.18a46.068,46.068,0,0,0,2.688-27.66,236.013,236.013,0,0,1-4.5-33.6c-.719-10.823-2.3-17.834-4.02-22.378h0s.663-14.729-9.315-22.409S640.4,242.282,640.4,242.282l2.329-9.51h-.095a9.14,9.14,0,0,0,2-.915,8.684,8.684,0,0,0,1.8-1.5c3.938-3.446,3.995-9.769,5.863-14.8,1.439-3.875,4.133-7.194,6.065-10.867,3.515-6.689,4.335-14.9,1.067-21.7s-11.012-11.694-18.743-10.816a33.678,33.678,0,0,0-7.3,1.963c-5.6,1.969-10.015-3.6-15.613-1.628-2.808.991-13.29,2.064-15.562,4.948a2.587,2.587,0,0,0-1.073,1.451c-.593,2.8,4.537,8.412,8.343,12.893a20.535,20.535,0,0,0-4.683,13.038q0,.161,0,.322v.322a20.661,20.661,0,0,0,6.279,14.786c-.322,2.815-.8,5.983-1.489,9.226h-.461s-2.663,11.523-11.309,11.523c-2.31,0-5.465-.139-8.835-.334a92.377,92.377,0,0,0-30.184,3.477c-3.37.94-7.081,1.022-10.185-1.218-7.421-5.358-15.411-19-16.5-20.9.833-5.534.719-15.669-10.772-17.512-13.473-2.158-12.735,13.454-4.985,23.387a6.182,6.182,0,0,0-.379,1.54c-.663,8.324,7.32,23.69,9.315,25.609s2.045,14.079,15.991,17.3,23.981,4.481,24.612,20.491,13.972,32.651,7.32,51.224c-3.995,11.145-2.953,16.982-1.483,19.866-.12.379-.234.751-.36,1.136-1.515,4.6-3.4,9.22-5.478,11.99-.48.631-.947,1.313-1.395,2.019-5.415,3.509-11.069,7.434-13.252,9.826-4.657,5.124-2.663,25.609,0,33.933s19.292,58.9,19.292,58.9h.631l.2,1.262.669,4.19a6.249,6.249,0,0,1-.631-.391,1.079,1.079,0,0,0-1.6.429l-3.25,7.257s-13.3-5.749-13.984,7.7v1.54c-.032,7.15,3.906,9.813,7.282,10.772a27.837,27.837,0,0,1,8.671,4.026c3.2,2.3,8.071,4.645,13.612,3.37a13.456,13.456,0,0,1,3.414-.316c2.392.069,6.437-.631,6.311-5.97a10.318,10.318,0,0,0,0-1.262s-2.808-10.81-2.928-15.777a3.692,3.692,0,0,1,.265-1.477,10.554,10.554,0,0,0,.587-4.462,46.823,46.823,0,0,0-.247-4.812.745.745,0,0,0-1.356-.312l-.107.145c-.429-1.42-.928-3.08-1.395-4.645l-.385-1.262h.9s-5.332-31.433-3.338-33.958c1.306-1.672-.8-21.683-2.417-35.34,16.206,1.029,42.035-1.836,59.705-2.72a22.618,22.618,0,0,0,9.649-2.688c-1.6,12.95-4.563,38.83-3.073,40.742,1.994,2.562-3.326,33.933-3.326,33.933h.8l-.29.959h.1c-.492,1.66-1.029,3.446-1.489,4.966l-.107-.145a.745.745,0,0,0-1.357.322,46.792,46.792,0,0,0-.246,4.8,11.438,11.438,0,0,0,.587,4.462,3.684,3.684,0,0,1,.265,1.477c-.12,5-2.928,15.777-2.928,15.777a10.342,10.342,0,0,0,0,1.262c-.133,5.364,3.913,6.046,6.311,5.97a13.457,13.457,0,0,1,3.414.316c5.541,1.262,10.413-1.079,13.612-3.37a27.835,27.835,0,0,1,8.671-4.026c3.376-.959,7.314-3.622,7.282-10.772v-1.54c-.7-13.435-14-7.686-14-7.686l-3.269-7.283a1.079,1.079,0,0,0-1.6-.429,6.237,6.237,0,0,1-.631.391l.877-5.471h.631s16.629-50.58,19.292-58.9,4.657-28.815,0-33.933c-2.2-2.423-7.964-6.412-13.435-9.952a124.749,124.749,0,0,1,13.435,9.315ZM660.083,374.6l-2.114-1.262a10.046,10.046,0,0,0-1.6-2.076,16.83,16.83,0,0,1-1.628-1.83c-1.3-3.932-6.1-20.194.3-28.581,4.651-6.109,5-17.91,4.638-25.7,3.155,15.467,7.573,37.233,8,41.7C668.211,362.431,662.494,371.209,660.083,374.6Z" transform="translate(-211.626 -99.487)"/>
      <path id="Path_40" data-name="Path 40" class="cls-16" d="M733.67,654.844l-2.524,16.408L716,668.1s3.155-10.728,3.786-13.252.631,0,.631,0Z" transform="translate(-287.327 -277.185)"/>
      <path id="Path_41" data-name="Path 41" class="cls-16" d="M625.67,668.1l-15.146,3.155-1.748-11.359L608,654.844h13.252s0-2.524.631,0c.227.909.782,2.89,1.407,5.049C624.408,663.717,625.67,668.1,625.67,668.1Z" transform="translate(-247.483 -277.185)"/>
      <path id="Path_42" data-name="Path 42" class="cls-5" d="M623.311,659.893H608.8l-.776-5.049h13.252s0-2.524.631,0C622.131,655.753,622.686,657.734,623.311,659.893Z" transform="translate(-247.49 -277.185)"/>
      <path id="Path_43" data-name="Path 43" class="cls-5" d="M719.79,659.393H734.3l.776-5.049H721.816s0-2.524-.631,0C720.97,655.253,720.415,657.234,719.79,659.393Z" transform="translate(-288.726 -277)"/>
      <path id="Path_44" data-name="Path 44" class="cls-16" d="M755.932,340.5s8.2.631,10.1,30.291a241.191,241.191,0,0,0,4.3,33.131,47.04,47.04,0,0,1-2.524,27.237l-8.084,19.778s-15.146-12.621-20.194-11.99c0,0,8.835-11.99,8.2-18.932S737,363.218,737,363.218Z" transform="translate(-295.075 -161.627)"/>
      <path id="Path_45" data-name="Path 45" class="cls-17" d="M601.431,489.5s-19.563,11.99-23.981,17.039-2.524,25.243,0,33.447,18.3,58.058,18.3,58.058h15.777s-5.049-30.922-3.155-33.447-3.786-47.33-3.786-47.33Z" transform="translate(-235.234 -216.598)"/>
      <path id="Path_46" data-name="Path 46" class="cls-17" d="M729.1,489.5s19.563,11.99,23.981,17.039,2.524,25.243,0,33.447-18.3,58.058-18.3,58.058H719s5.049-30.922,3.155-33.447,3.786-47.33,3.786-47.33Z" transform="translate(-288.434 -216.598)"/>
      <path id="Path_47" data-name="Path 47" class="cls-5" d="M601.431,489.5s-19.563,11.99-23.981,17.039-2.524,25.243,0,33.447,18.3,58.058,18.3,58.058h15.777s-5.049-30.922-3.155-33.447-3.786-47.33-3.786-47.33Z" transform="translate(-235.234 -216.598)"/>
      <path id="Path_48" data-name="Path 48" class="cls-5" d="M729.1,489.5s19.563,11.99,23.981,17.039,2.524,25.243,0,33.447-18.3,58.058-18.3,58.058H719s5.049-30.922,3.155-33.447,3.786-47.33,3.786-47.33Z" transform="translate(-288.434 -216.598)"/>
      <path id="Path_49" data-name="Path 49" class="cls-18" d="M664.214,233.876s0,24.612-8.835,37.233S695.768,273,695.768,273a13.108,13.108,0,0,1-4.733-6.626c-2.6-9.258-3.584-25.565.316-32.5C697.03,223.779,664.214,233.876,664.214,233.876Z" transform="translate(-264.571 -120.635)"/>
      <circle id="Ellipse_10" data-name="Ellipse 10" class="cls-5" cx="20.825" cy="20.825" r="20.825" transform="translate(393.03 88.315)"/>
      <circle id="Ellipse_11" data-name="Ellipse 11" class="cls-18" cx="20.825" cy="20.825" r="20.825" transform="translate(393.03 87.683)"/>
      <path id="Path_50" data-name="Path 50" class="cls-17" d="M674.169,542.3c-22.573,1-60.122,5.2-65.814-1.035-9.182-10.053-5.926-19.1-1.186-24.612,1.855-2.165,3.521-5.787,4.872-9.4.454-1.224.877-2.442,1.262-3.6,1.458-4.5,6.311-7.6,11.8-7.6h45.582c5.522,0,10.381,3.155,11.814,7.655a20.25,20.25,0,0,0,2.9,5.9,14.289,14.289,0,0,0,2.329,2.524c2.3,1.95,3.786,6.153,4.752,10.779C694.521,532.692,685.888,541.78,674.169,542.3Z" transform="translate(-245.458 -219.011)"/>
      <path id="Path_51" data-name="Path 51" class="cls-5" d="M674.169,542.3c-22.573,1-60.122,5.2-65.814-1.035-9.182-10.053-5.926-19.1-1.186-24.612,1.855-2.165,3.521-5.787,4.872-9.4.454-1.224.877-2.442,1.262-3.6,1.458-4.5,6.311-7.6,11.8-7.6h45.582c5.522,0,10.381,3.155,11.814,7.655a20.25,20.25,0,0,0,2.9,5.9,14.289,14.289,0,0,0,2.329,2.524c2.3,1.95,3.786,6.153,4.752,10.779C694.521,532.692,685.888,541.78,674.169,542.3Z" transform="translate(-245.458 -219.011)"/>
      <path id="Path_52" data-name="Path 52" class="cls-5" d="M607.977,672.362c-1.975-.4-7.131-1.534-9.132-3.054a1,1,0,0,0-1.515.423l-3.092,7.2s-12.621-5.68-13.252,7.573c-.366,7.731,3.559,10.52,6.9,11.5a25.96,25.96,0,0,1,8.248,3.957c3.035,2.259,7.661,4.575,12.912,3.326a12.308,12.308,0,0,1,3.237-.315c2.354.076,6.412-.631,5.964-6.494,0,0-3.786-15.146-2.524-17.67.8-1.59.587-5.68.328-8.494a.7.7,0,0,0-1.262-.322,5.554,5.554,0,0,1-4.866,2.524A8.84,8.84,0,0,1,607.977,672.362Z" transform="translate(-237.508 -282.864)"/>
      <path id="Path_53" data-name="Path 53" class="cls-19" d="M607.977,673.362c-1.975-.4-7.131-1.534-9.132-3.054a1,1,0,0,0-1.515.423l-3.092,7.2s-12.621-5.68-13.252,7.573c-.366,7.731,3.559,10.52,6.9,11.5a25.96,25.96,0,0,1,8.248,3.957c3.035,2.259,7.661,4.575,12.912,3.326a12.308,12.308,0,0,1,3.237-.315c2.354.076,6.412-.631,5.964-6.494,0,0-3.786-15.146-2.524-17.67.8-1.59.587-5.68.328-8.494a.7.7,0,0,0-1.262-.322,5.553,5.553,0,0,1-4.866,2.524A8.832,8.832,0,0,1,607.977,673.362Z" transform="translate(-237.508 -283.233)"/>
      <path id="Path_54" data-name="Path 54" class="cls-5" d="M722.252,672.362c1.975-.4,7.131-1.534,9.132-3.054a1,1,0,0,1,1.515.423l3.073,7.2s12.621-5.68,13.252,7.573c.366,7.731-3.559,10.52-6.9,11.5a25.962,25.962,0,0,0-8.2,3.969c-3.035,2.259-7.661,4.575-12.912,3.326a12.3,12.3,0,0,0-3.237-.316c-2.354.076-6.412-.631-5.964-6.494,0,0,3.786-15.146,2.524-17.67-.8-1.59-.587-5.68-.328-8.494a.7.7,0,0,1,1.262-.322,5.553,5.553,0,0,0,4.865,2.524A8.835,8.835,0,0,0,722.252,672.362Z" transform="translate(-285.843 -282.864)"/>
      <path id="Path_55" data-name="Path 55" class="cls-19" d="M722.252,673.362c1.975-.4,7.131-1.534,9.132-3.054a1,1,0,0,1,1.515.423l3.073,7.2s12.621-5.68,13.252,7.573c.366,7.731-3.559,10.52-6.9,11.5a25.962,25.962,0,0,0-8.2,3.969c-3.035,2.259-7.661,4.575-12.912,3.326a12.308,12.308,0,0,0-3.237-.315c-2.354.076-6.412-.631-5.964-6.494,0,0,3.786-15.146,2.524-17.67-.8-1.59-.587-5.68-.328-8.494a.7.7,0,0,1,1.262-.322,5.553,5.553,0,0,0,4.865,2.524,8.835,8.835,0,0,0,1.919-.17Z" transform="translate(-285.843 -283.233)"/>
      <path id="Path_56" data-name="Path 56" class="cls-18" d="M537.626,249.208s5.68-18.3-9.466-20.825-11.359,19.563,0,27.767S537.626,249.208,537.626,249.208Z" transform="translate(-214.342 -120.19)"/>
      <path id="Path_57" data-name="Path 57" class="cls-5" d="M688.6,478.141c-17.67,29.029-76.99-3.786-76.99-3.786a6.322,6.322,0,0,1-2.379-3.282c.486-1.534.934-3.067,1.338-4.525A13.025,13.025,0,0,1,623.151,457h48.592a13.006,13.006,0,0,1,12.583,9.611,27.515,27.515,0,0,0,3.092,7.409C688.044,476.563,688.6,478.141,688.6,478.141Z" transform="translate(-247.936 -204.608)"/>
      <path id="Path_58" data-name="Path 58" class="cls-16" d="M618.114,263.066h-3.786S611.8,274.425,603.6,274.425c-2.19,0-5.181-.133-8.4-.334a84.513,84.513,0,0,0-28.638,3.427c-3.2.928-6.715,1.01-9.662-1.2-7.573-5.68-15.777-20.825-15.777-20.825s-14.515-.631-15.146,7.573,6.942,23.35,8.835,25.243,1.893,13.884,15.146,17.039,22.718,4.417,23.35,20.194,13.252,32.184,6.942,50.485.631,22.087.631,22.087,59.32,32.816,76.99,3.786c0,0-6.942-19.563,0-29.029s3.786-32.816,3.786-32.816l22.718-22.718s.631-14.515-8.835-22.087-31.553-19.563-31.553-19.563l2.209-9.378Z" transform="translate(-217.208 -130.261)"/>
      <path id="Path_59" data-name="Path 59" class="cls-5" d="M666.007,216.867c-.48,5.938-.29,12.716,4.1,16.749a17.542,17.542,0,0,0,7.882,3.66,50.356,50.356,0,0,0,9.094,1.344c2.8.151,5.787,0,8.141-1.5,4.821-3.111,4.708-10.028,6.639-15.436,1.363-3.824,3.925-7.087,5.755-10.728,3.332-6.588,4.115-14.685,1.01-21.387s-10.444-11.511-17.777-10.634a31,31,0,0,0-6.942,1.937c-5.314,1.944-9.5-3.553-14.811-1.609-2.9,1.06-14.439,2.228-15.146,5.68-.839,4.1,10.324,14.332,11.53,17.922C667.067,207.5,666.007,212.134,666.007,216.867Z" transform="translate(-264.42 -101.984)"/>
      <path id="Path_60" data-name="Path 60" class="cls-20" d="M667.007,215.867c-.48,5.938-.29,12.716,4.1,16.749a17.542,17.542,0,0,0,7.882,3.66,50.356,50.356,0,0,0,9.094,1.344c2.8.151,5.787,0,8.141-1.5,4.821-3.111,4.708-10.028,6.639-15.436,1.363-3.824,3.925-7.087,5.755-10.728,3.332-6.588,4.115-14.685,1.01-21.387s-10.444-11.511-17.777-10.634a31.006,31.006,0,0,0-6.942,1.937c-5.314,1.944-9.5-3.553-14.811-1.609-2.9,1.06-14.439,2.228-15.146,5.68-.839,4.1,10.324,14.332,11.53,17.922C668.067,206.5,667.007,211.134,667.007,215.867Z" transform="translate(-264.789 -101.615)"/>
      <path id="Path_61" data-name="Path 61" class="cls-5" d="M659.52,280.49s3.786,1.584,14.515,4.739a31.871,31.871,0,0,0,18.932,0" transform="translate(-266.49 -139.488)"/>
      <path id="Path_62" data-name="Path 62" class="cls-5" d="M614.5,423.4s17.67,1.01,23.35,8.583,7.573,10.1,14.515,10.1,29.029,1.262,32.184,2.524" transform="translate(-249.881 -192.212)"/>
    </g>
    <g id="Jabuka">
      <path id="Path_73" data-name="Path 73" class="cls-6" d="M839.378,357.125s-5.762-1.95-8.532,3.155a9.264,9.264,0,0,0,.12,8.917,13.079,13.079,0,0,0,12.684,7.188c6.033-.322,8.033-4.922,8.583-9.207a9.466,9.466,0,0,0-12.558-10.1Z" transform="translate(-329.298 -167.543)"/>
      <path id="Path_74" data-name="Path 74" class="cls-21" d="M832.2,369.475a9.264,9.264,0,0,1-.12-8.917c2.77-5.049,8.532-3.155,8.532-3.155l.3-.107a9.372,9.372,0,0,1,6.771.151,9.378,9.378,0,0,0-7.989-.764l-.3.107s-5.762-1.95-8.532,3.155a9.264,9.264,0,0,0,.12,8.917,13.845,13.845,0,0,0,6.506,6.166,14.282,14.282,0,0,1-5.288-5.553Z" transform="translate(-329.305 -167.392)"/>
      <path id="Path_75" data-name="Path 75" class="cls-22" d="M840.3,361.34s2.133,1.679,7.327,0" transform="translate(-333.186 -169.316)"/>
      <path id="Path_76" data-name="Path 76" class="cls-6" d="M839.58,342s3.66,9.92,3.357,12.514l2.9-.3s-4.884-8.7-3.66-12.2Z" transform="translate(-332.92 -162.181)"/>
      <path id="Path_77" data-name="Path 77" class="cls-22" d="M839.58,342s3.66,9.92,3.357,12.514l2.9-.3s-4.884-8.7-3.66-12.2Z" transform="translate(-332.92 -162.181)"/>
      <path id="Path_78" data-name="Path 78" class="cls-6" d="M856.645,342.447s-5.762-2.947-8.343-.511-2.972,8.658-2.972,8.658S854.727,351.888,856.645,342.447Z" transform="translate(-335.041 -161.801)"/>
      <path id="Path_79" data-name="Path 79" class="cls-21" d="M856.645,342.447s-5.762-2.947-8.343-.511-2.972,8.658-2.972,8.658S854.727,351.888,856.645,342.447Z" transform="translate(-335.041 -161.801)"/>
      <path id="Path_80" data-name="Path 80" class="cls-23" d="M845.33,351.457s1.515-7.226,11.315-8.147" transform="translate(-335.041 -162.664)"/>
    </g>
  </g>
</svg>
