<?xml version="1.0" encoding="utf-8"?>
<!-- Generator: Adobe Illustrator 21.0.0, SVG Export Plug-In . SVG Version: 6.00 Build 0)  -->
<svg version="1.1" id="Layer_1" xmlns="http://www.w3.org/2000/svg" xmlns:xlink="http://www.w3.org/1999/xlink" x="0px" y="0px"
	 viewBox="0 0 580 390.8" style="enable-background:new 0 0 580 390.8;" xml:space="preserve">
<style type="text/css">
	.st0{fill:#9F616A;}
	.st1{fill:#2F2E41;}
	.st2{fill:#3182CE;}
	.st3{fill:#3F3D56;}
	.st4{fill:#E6E6E6;}
	.st5{fill:#FFFFFF;}
</style>
<g transform="translate(0)">
	<g id="boy">
		<path class="st0" d="M58.8,197.4l4.9,4.8l-6.5,16.9l-9-18.8l-14.8-85.1l22.8-0.6L58.8,197.4z"/>
		<path class="st0" d="M95.9,375.6h12.3l9.6-109h-24L95.9,375.6z"/>
		<path class="st0" d="M49.3,375.6h12.3l9.6-109h-24L49.3,375.6z"/>
		<path class="st1" d="M58.9,389.8l18-0.1c3.3-1.7,4.9-5.6,3.6-9.1l0,0c-0.9-2.4-3.1-4.2-5.6-4.6l-3.4-0.6l-3-3.8
			c-1.7-2.3-4.9-2.9-7.4-1.4c-2.8,1.8-6.8,2.4-11.7,2l-3.8,9.2c-0.8,5,2.7,8.3,7.7,9.1l0,0C55.2,390.9,57.1,390.6,58.9,389.8
			L58.9,389.8z"/>
		<path class="st1" d="M105.5,389.8l18-0.1c3.3-1.7,4.9-5.6,3.6-9.1l0,0c-0.9-2.4-3.1-4.2-5.6-4.6l-3.4-0.6l-3.3-4.2
			c-1.7-2.1-4.7-2.6-6.9-1.1c-2.9,1.9-6.9,2.5-11.8,2.1l-3.8,9.2c-0.8,5,2.7,8.3,7.7,9.1l0,0C101.8,390.9,103.8,390.6,105.5,389.8z"
			/>
		<ellipse class="st0" cx="92.5" cy="38.2" rx="18.5" ry="18.5"/>
		<path class="st0" d="M65.8,73.9l30.2,2.1c-0.1-9.8,0.3-18.6,2.7-24l-21.3-6.9C77.2,53.7,72.7,63.4,65.8,73.9z"/>
		<path class="st2" d="M47.2,207.6l77.5-6.2c-10.3-34.5-7.1-79.6,3.4-113.4c0-8.1-5-15.3-12.5-18.2l-19.7-7.5l-24.7,2.7L50.4,75.4
			c-6.6,3.3-10.6,10-10.5,17.4C47.8,124,48.7,164.2,47.2,207.6z"/>
		<path class="st2" d="M105.5,123.2l35-6.2l-3-23.3c-1.5-11.6-9.8-21.2-21.2-24.2l-6.7-1.8L105.5,123.2z"/>
		<path class="st0" d="M126.1,200.7l-4.1,5.5l6.2,17.1l8.9-21.3l2.1-86.4l-22.6,2.7L126.1,200.7z"/>
		<path class="st2" d="M67.1,124.6l-35-6.2l3-23.3c1.5-11.6,9.8-21.2,21.2-24.2l6.7-1.8L67.1,124.6z"/>
		<path class="st1" d="M45.2,270l28.7,1.4l8.3-40.5l10.1,37.7l30.3,0.7l6.1-48.7c0.9-7.6-1.2-15.3-6.1-21.2l0,0l-75.4,3.4L45.2,270z
			"/>
		<path class="st1" d="M90.8,58.4l-13.8-2.6l-8.2-14.1c-4.1-7-3.2-15.9,2.2-21.9l0,0c4.2-4.7,10.4-6.9,16.6-6.1l17.9,2.6
			c6.5,0.9,11,6.9,10.1,13.4c0,0,0,0.1,0,0.1l-12.1,2.1L90.8,58.4z"/>
		<ellipse class="st0" cx="99" cy="43.3" rx="3.4" ry="4.1"/>
		<path class="st3" d="M0.3,390.8h183.4v-1.5H0L0.3,390.8z"/>
	</g>
	<g id="bar5">
		<path class="st4" d="M493.3,8.4c4.2,0,7.5,3.4,7.5,7.5v137.8c0,4.2-3.4,7.5-7.5,7.5h-3.4c-4.2,0-7.5-3.4-7.5-7.5V15.9
			c0-4.2,3.4-7.5,7.5-7.5H493.3z"/>
		<path class="st5" d="M493.3,11.5c2.5,0,4.5,2,4.5,4.5v137.8c0,2.5-2,4.5-4.5,4.5h-3.4c-2.5,0-4.5-2-4.5-4.5V15.9
			c0-2.5,2-4.5,4.5-4.5H493.3z"/>
		<path class="st2" d="M480.4,53H502c3.9,0,7-3.1,7-7v-1.1c0-3.9-3.1-7-7-7h-21.6c-3.9,0-7,3.1-7,7v1.1
			C473.4,49.8,476.5,53,480.4,53z"/>
		<ellipse class="st4" cx="491.2" cy="188.7" rx="8.9" ry="8.9"/>
	</g>
	<g id="bar4">
		<path class="st4" d="M437.1,8.4c4.2,0,7.5,3.4,7.5,7.5v137.8c0,4.2-3.4,7.5-7.5,7.5h-3.4c-4.2,0-7.5-3.4-7.5-7.5V15.9
			c0-4.2,3.4-7.5,7.5-7.5H437.1z"/>
		<path class="st5" d="M437.1,11.5c2.5,0,4.5,2,4.5,4.5v137.8c0,2.5-2,4.5-4.5,4.5h-3.4c-2.5,0-4.5-2-4.5-4.5V15.9
			c0-2.5,2-4.5,4.5-4.5H437.1z"/>
		<path class="st2" d="M422.8,75.6h21.6c3.9,0,7-3.1,7-7v-1.1c0-3.9-3.1-7-7-7h-21.6c-3.9,0-7,3.1-7,7v1.1
			C415.8,72.4,418.9,75.6,422.8,75.6z"/>
		<ellipse class="st4" cx="435" cy="188.7" rx="8.9" ry="8.9"/>
	</g>
	<g id="bar3">
		<path class="st4" d="M380.8,8.4c4.2,0,7.5,3.4,7.5,7.5v137.8c0,4.2-3.4,7.5-7.5,7.5h-3.4c-4.2,0-7.5-3.4-7.5-7.5V15.9
			c0-4.2,3.4-7.5,7.5-7.5H380.8z"/>
		<path class="st5" d="M380.8,11.5c2.5,0,4.5,2,4.5,4.5v137.8c0,2.5-2,4.5-4.5,4.5h-3.4c-2.5,0-4.5-2-4.5-4.5V15.9
			c0-2.5,2-4.5,4.5-4.5H380.8z"/>
		<path class="st2" d="M368,120.2h21.6c3.9,0,7-3.1,7-7v-1.1c0-3.9-3.1-7-7-7H368c-3.9,0-7,3.1-7,7v1.1
			C361,117,364.1,120.2,368,120.2z"/>
		<ellipse class="st4" cx="378.8" cy="188.7" rx="8.9" ry="8.9"/>
	</g>
	<g id="bar2">
		<path class="st4" d="M324.6,8.4c4.2,0,7.5,3.4,7.5,7.5v137.8c0,4.2-3.4,7.5-7.5,7.5h-3.4c-4.2,0-7.5-3.4-7.5-7.5V15.9
			c0-4.2,3.4-7.5,7.5-7.5H324.6z"/>
		<path class="st5" d="M324.6,11.5c2.5,0,4.5,2,4.5,4.5v137.8c0,2.5-2,4.5-4.5,4.5h-3.4c-2.5,0-4.5-2-4.5-4.5V15.9
			c0-2.5,2-4.5,4.5-4.5H324.6z"/>
		<path class="st2" d="M311.7,39.3h21.6c3.9,0,7-3.1,7-7v-1.1c0-3.9-3.1-7-7-7h-21.6c-3.9,0-7,3.1-7,7v1.1
			C304.7,36.1,307.9,39.2,311.7,39.3z"/>
		<ellipse class="st4" cx="322.5" cy="188.7" rx="8.9" ry="8.9"/>
	</g>
	<g id="bar1">
		<path class="st4" d="M268.4,8.4c4.2,0,7.5,3.4,7.5,7.5v137.8c0,4.2-3.4,7.5-7.5,7.5H265c-4.2,0-7.5-3.4-7.5-7.5V15.9
			c0-4.2,3.4-7.5,7.5-7.5H268.4z"/>
		<path class="st5" d="M268.4,11.5c2.5,0,4.5,2,4.5,4.5v137.8c0,2.5-2,4.5-4.5,4.5H265c-2.5,0-4.5-2-4.5-4.5V15.9
			c0-2.5,2-4.5,4.5-4.5H268.4z"/>
		<path class="st2" d="M255.5,92.7h21.6c3.9,0,7-3.1,7-7v-1.1c0-3.9-3.1-7-7-7h-21.6c-3.9,0-7,3.1-7,7v1.1
			C248.5,89.6,251.6,92.7,255.5,92.7z"/>
		<ellipse class="st4" cx="266.3" cy="188.7" rx="8.9" ry="8.9"/>
	</g>
	<g id="check_x5F_mark">
		<path class="st4" d="M560.3,0C571.2,0,580,8.8,580,19.7s-8.8,19.7-19.7,19.7c-10.9,0-19.7-8.8-19.7-19.7c0,0,0,0,0,0
			C540.5,8.8,549.4,0,560.3,0z M560.3,36.6c9.3,0,16.8-7.5,16.8-16.8s-7.5-16.8-16.8-16.8c-9.3,0-16.8,7.5-16.8,16.8
			C543.4,29,551,36.6,560.3,36.6C560.3,36.6,560.3,36.6,560.3,36.6z"/>
		<path class="st2" d="M557.8,26.5c-0.3,0-0.5-0.1-0.7-0.3l-5.6-5.6c-0.4-0.4-0.4-1.1,0-1.5c0.4-0.4,1-0.4,1.4,0l4.8,4.8l8.4-11.5
			c0.3-0.5,1-0.6,1.5-0.3s0.6,1,0.3,1.5c0,0,0,0,0,0l-9.2,12.5C558.5,26.3,558.2,26.5,557.8,26.5C557.9,26.5,557.8,26.5,557.8,26.5z
			"/>
	</g>
</g>
</svg>
